<svg xmlns="http://www.w3.org/2000/svg" width="2400" height="1432" version="1.0" viewBox="0 0 1800 1074"><path d="M1129 193c-86 8-87 135-163 142-90-22-180-47-272-63-74-19-156-3-228-23-53-33-110 2-156 30-77 27-118 100-125 178-47 52-91 114-81 188 18 82 87 149 167 174 147 45 340 65 451 46 44-7 68 7 135 79 51 55 90 91 157 85 69-26 81-108 74-172-13-45 2-118 66-86 68 42 131-35 130-100 12-60 75-123 142-100 62 10 148 24 186-40 24-44 73-242 23-304-46-51-112-6-154 26-60 43-106 105-167 146-116 84-32-175-168-206h-8zm21 31c54 36 59 116 60 174-39 17-92-7-140-19-80-19-1-84 17-124 15-18 38-32 63-31m454 13c40 47 17 284-54 304-59 13-148-9-189-13 30-36-4-89-11-110 73-65 136-152 233-183q11-2 21 2M428 267c116 22-155 70-63 16q29-19 63-16m161 26c147 13 291 51 432 95 95 37 201 76 304 46 62-3 24 109-7 139-46 43-105 89-170 127-32 18-82 75-67 6 44-105-55-112-112-85-18 1-71 23-113 10-44-13-68-11-63 8-3 44-51 172-3 155-46-17 22-161 22-147 56 48 124-4 190-2 86-25 46 57 41 107-5 61 24 133 9 194-12 70-82 60-131 18S814 839 768 809c-74 29-91 22-178 23-121-3-252-19-362-71-44-24-72-68-90-111-12-47 29-41 35-1 19 35 139 12 73-13-50 3-146-34-88-93 43-59 108-110 117-187 24-67 106-31 159-55q77-13 155-8m-311 42c-14 23-28 18-16 37-42-21-24 121-40 48 1-33 21-78 56-85m-63 305c44-8 48 31 2 18-20-1-42-24-2-18m1028 14c35 52-38 130-89 82-5-26 43-51 89-82" style="fill:#e8cf8d;stroke:none;stroke-width:.1"/><path d="M530 335c-56 9-107 56-112 114 15-2 19-20 22-32 3-15 16-23 26-32 37-29 89-41 134-24 42 15 72 65 59 109-12-26-23-56-52-67-39-17-87-2-116 28-25 24-43 60-34 95 4 23 21 41 41 51 47 25 111 9 140-36 17-25 24-54 33-81 8-34-3-73-32-94-29-25-70-36-109-31m52 70c37 4 64 40 66 76 3 39-24 75-59 90-35 16-82 13-110-17-22-24-20-62-4-90 22-36 63-62 107-59" style="fill:#e8cf8d;stroke:none;stroke-width:.1"/><path d="M546 426c-56 11-81 97-31 131 33 21 82 1 93-36 16-36 0-89-42-95zm-2 15c31 25-40 56-30 14 4-12 18-20 30-14m31 37c25 20-1 62-28 64-35-1-28-37 0-46 10-3 18-14 28-17m545-29c-26 18 17 59 37 38 16-17-10-40-28-40q-6 0-10 2m125 7c-4 38 64 22 22 0-6-1-18-5-23 0m-161 51c-25 16 1 57 26 42 21-9 15-41-7-45-6 1-14-2-19 3m169 22c-24 28 32 38 19 4-2-8-14-12-19-4m-88 9c-29 9-16 60 13 41 22-10 14-53-13-41m-55 34c-29 11 3 52 16 19 3-9-5-23-16-19m-931 18q40 19 82 26 10 0 18 8 4 4 10 6-1-7-8-11c-9-7-20-8-31-13q-19-7-40-10l-26-7zm90 87a93 93 0 0 1-47 20c-4-1-10 3-5 6q9 10 20 11c11 1 21-6 30-11l39-25q12-8 19-18 4-7-1-12c-2 4 6 2-55 29" style="fill:#e8cf8d;stroke:none;stroke-width:.1"/></svg>